<svg width="204" height="187" viewBox="0 0 204 187" fill="none" xmlns="http://www.w3.org/2000/svg">
<circle cx="182.614" cy="165.774" r="16.7261" stroke="white" stroke-width="9"/>
<circle cx="182.614" cy="93.5" r="16.7261" stroke="white" stroke-width="9"/>
<circle cx="182.614" cy="21.2261" r="16.7261" stroke="white" stroke-width="9"/>
<circle cx="101.92" cy="165.774" r="16.7261" stroke="white" stroke-width="9"/>
<circle cx="101.92" cy="93.5" r="16.7261" stroke="white" stroke-width="9"/>
<circle cx="101.92" cy="21.2261" r="16.7261" stroke="white" stroke-width="9"/>
<circle cx="21.2261" cy="165.774" r="16.7261" stroke="white" stroke-width="9"/>
<circle cx="21.2261" cy="93.5" r="16.7261" stroke="white" stroke-width="9"/>
<circle cx="21.2261" cy="21.2261" r="16.7261" stroke="white" stroke-width="9"/>
<rect x="19.2964" y="43.8555" width="3.50844" height="27.015" fill="white"/>
<rect x="40.698" y="34.0568" width="3.50844" height="61.5984" transform="rotate(-45 40.698 34.0568)" fill="white"/>
<rect width="3.50844" height="61.5984" transform="matrix(-0.707107 -0.707107 -0.707107 0.707107 162.518 34.0568)" fill="white"/>
<rect x="180.685" y="43.8555" width="3.50844" height="27.015" fill="white"/>
<rect x="180.685" y="116.129" width="3.50844" height="27.015" fill="white"/>
<rect x="19.2964" y="116.129" width="3.50844" height="27.015" fill="white"/>
</svg>
